<?xml version="1.0" encoding="utf-8"?>
<!-- Generator: Adobe Illustrator 16.0.0, SVG Export Plug-In . SVG Version: 6.00 Build 0)  -->
<!DOCTYPE svg PUBLIC "-//W3C//DTD SVG 1.1//EN" "http://www.w3.org/Graphics/SVG/1.1/DTD/svg11.dtd">
<svg version="1.1" id="Layer_1" xmlns="http://www.w3.org/2000/svg" xmlns:xlink="http://www.w3.org/1999/xlink" x="0px" y="0px"
	 width="80px" height="80px" viewBox="0 0 80 80" enable-background="new 0 0 80 80" xml:space="preserve">
<g>
	<rect x="21.611" y="61.49" fill="#12110D" width="2.571" height="10.929"/>
	<rect x="22.579" y="65.99" fill="#12110D" width="2.786" height="2.357"/>
	<rect x="55.818" y="61.705" fill="#12110D" width="2.571" height="10.928"/>
	<rect x="54.636" y="65.776" fill="#12110D" width="2.785" height="2.356"/>
</g>
<g>
	<path fill="#282828" d="M23.972,20.135h32.056c0,0-1.393,43.713-1.393,47.998c0,4.286-3.026,4.5-3.026,4.5l-23.57-0.214
		c0,0-2.674,0.214-2.674-4.071C25.365,64.062,23.972,20.135,23.972,20.135z"/>
	<rect x="21.611" y="15.207" fill="#282828" width="36.779" height="3.214"/>
	<polygon fill="#282828" points="22.896,13.492 25.365,10.492 54.636,10.492 57.104,13.492 	"/>
	<path fill="#282828" d="M34.054,10.492c0-2.308,0.476-3.18,2.141-3.18c1.665,0,3.805,0,3.805,0v1.59h-4.123l-0.079,1.59H34.054z"/>
	<path fill="#282828" d="M45.946,10.492c0-2.308-0.476-3.18-2.141-3.18s-3.806,0-3.806,0v1.59h4.123l0.079,1.59H45.946z"/>
</g>
<g>
	<g>
		<path fill="#FFFFFF" d="M35.033,33.854l2.537,1.268l3.647-5.55c0,0-1.903-0.634-3.092,0
			C36.936,30.207,35.033,33.854,35.033,33.854z"/>
		<polygon fill="#FFFFFF" points="40.014,32.119 41.502,29.697 43.295,32.216 44.264,31.526 43.337,34.716 40.172,34.391 
			41.229,33.688 		"/>
	</g>
	<g>
		<path fill="#FFFFFF" d="M45.479,34.82l-2.448,1.433l2.658,6.086c0,0,1.57-1.248,1.688-2.59
			C47.494,38.406,45.479,34.82,45.479,34.82z"/>
		<polygon fill="#FFFFFF" points="44.212,39.941 45.429,42.51 42.339,42.637 42.388,43.824 40.221,41.307 42.223,38.833 
			42.234,40.102 		"/>
	</g>
	<g>
		<path fill="#FFFFFF" d="M39.262,43.342l-0.023-2.836l-6.601-0.726c0,0,0.3,1.983,1.405,2.753
			C35.149,43.305,39.262,43.342,39.262,43.342z"/>
		<polygon fill="#FFFFFF" points="35.452,39.693 32.619,39.469 34.048,36.727 32.993,36.178 36.255,35.553 37.404,38.521 
			36.297,37.899 		"/>
	</g>
</g>
</svg>
