<?xml version="1.0" encoding="utf-8"?>
<!-- Generator: Adobe Illustrator 16.0.0, SVG Export Plug-In . SVG Version: 6.00 Build 0)  -->
<!DOCTYPE svg PUBLIC "-//W3C//DTD SVG 1.1//EN" "http://www.w3.org/Graphics/SVG/1.1/DTD/svg11.dtd">
<svg version="1.1" id="Layer_1" xmlns="http://www.w3.org/2000/svg" xmlns:xlink="http://www.w3.org/1999/xlink" x="0px" y="0px"
	 width="36.779px" height="65.32px" viewBox="0 0 36.779 65.32" enable-background="new 0 0 36.779 65.32" xml:space="preserve">
<g>
	<rect y="54.178" fill="#12110D" width="2.571" height="10.929"/>
	<rect x="0.968" y="58.678" fill="#12110D" width="2.786" height="2.357"/>
	<rect x="34.208" y="54.393" fill="#12110D" width="2.571" height="10.928"/>
	<rect x="33.025" y="58.464" fill="#12110D" width="2.785" height="2.356"/>
</g>
<g>
	<path fill="#282828" d="M2.361,12.822h32.056c0,0-1.393,43.713-1.393,47.998c0,4.286-3.026,4.5-3.026,4.5l-23.57-0.214
		c0,0-2.674,0.214-2.674-4.071C3.754,56.749,2.361,12.822,2.361,12.822z"/>
	<rect y="7.894" fill="#282828" width="36.779" height="3.214"/>
	<polygon fill="#282828" points="1.286,6.18 3.754,3.18 33.025,3.18 35.493,6.18 	"/>
	<path fill="#282828" d="M12.443,3.18c0-2.308,0.476-3.18,2.141-3.18c1.665,0,3.805,0,3.805,0v1.59h-4.123l-0.079,1.59H12.443z"/>
	<path fill="#282828" d="M24.335,3.18c0-2.308-0.476-3.18-2.141-3.18s-3.806,0-3.806,0v1.59h4.123l0.079,1.59H24.335z"/>
</g>
<g>
	<g>
		<path fill="#FFFFFF" d="M13.422,26.542l2.537,1.268l3.647-5.55c0,0-1.903-0.634-3.092,0
			C15.325,22.895,13.422,26.542,13.422,26.542z"/>
		<polygon fill="#FFFFFF" points="18.403,24.807 19.891,22.385 21.684,24.904 22.653,24.214 21.726,27.404 18.561,27.079 
			19.618,26.375 		"/>
	</g>
	<g>
		<path fill="#FFFFFF" d="M23.868,27.508l-2.448,1.433l2.658,6.086c0,0,1.57-1.248,1.688-2.59
			C25.883,31.093,23.868,27.508,23.868,27.508z"/>
		<polygon fill="#FFFFFF" points="22.601,32.628 23.818,35.197 20.728,35.324 20.777,36.512 18.61,33.994 20.612,31.52 
			20.624,32.789 		"/>
	</g>
	<g>
		<path fill="#FFFFFF" d="M17.651,36.029l-0.023-2.836l-6.601-0.726c0,0,0.3,1.983,1.405,2.753
			C13.538,35.992,17.651,36.029,17.651,36.029z"/>
		<polygon fill="#FFFFFF" points="13.841,32.381 11.008,32.157 12.437,29.415 11.382,28.865 14.644,28.24 15.793,31.208 
			14.687,30.586 		"/>
	</g>
</g>
</svg>
