<?xml version="1.0" encoding="utf-8"?>
<!-- Generator: Adobe Illustrator 16.0.0, SVG Export Plug-In . SVG Version: 6.00 Build 0)  -->
<!DOCTYPE svg PUBLIC "-//W3C//DTD SVG 1.1//EN" "http://www.w3.org/Graphics/SVG/1.1/DTD/svg11.dtd">
<svg version="1.1" id="Layer_1" xmlns="http://www.w3.org/2000/svg" xmlns:xlink="http://www.w3.org/1999/xlink" x="0px" y="0px"
	 width="15px" height="25.613px" viewBox="0 0 15 25.613" enable-background="new 0 0 15 25.613" xml:space="preserve">
<path fill="#678244" d="M1.207,5.001h12.829c0,0-0.51,17.16-0.51,18.845c0,1.681-1.211,1.767-1.211,1.767l-9.48-0.001
	c0,0-1.07,0.086-1.07-1.594C1.765,22.332,1.207,5.001,1.207,5.001z"/>
<rect y="4.347" fill="#678244" width="14.985" height="1.309"/>
<polygon fill="#678244" points="0.524,3.332 1.53,2.109 13.458,2.109 14.463,3.332 "/>
<path fill="#678244" d="M5.07,1.295C5.07,0.353,5.265,0,5.942,0c0.678,0,1.55,0,1.55,0v0.649H5.813L5.781,1.295H5.07z"/>
<path fill="#678244" d="M9.916,1.295C9.916,0.353,9.723,0,9.044,0S7.493,0,7.493,0v0.649h1.68l0.032,0.646H9.916z"/>
</svg>
