<?xml version="1.0" encoding="utf-8"?>
<!-- Generator: Adobe Illustrator 16.0.0, SVG Export Plug-In . SVG Version: 6.00 Build 0)  -->
<!DOCTYPE svg PUBLIC "-//W3C//DTD SVG 1.1//EN" "http://www.w3.org/Graphics/SVG/1.1/DTD/svg11.dtd">
<svg version="1.1" id="Layer_1" xmlns="http://www.w3.org/2000/svg" xmlns:xlink="http://www.w3.org/1999/xlink" x="0px" y="0px"
	 width="15px" height="25.613px" viewBox="0 0 15 25.613" enable-background="new 0 0 15 25.613" xml:space="preserve">
<g>
	<path fill="#FFF91A" d="M4.309,7.732c-2.896,3.678-4.302,9.552-4.302,11.708c0,2.159-0.249,4.919,2.151,5.634
		c2.4,0.723,7.778,0.723,9.849,0c2.066-0.715,2.896-1.434,3.061-3.597c0.166-2.156-1.599-10.666-4.496-13.783
		c0,0-2.006,0.084-3.032,0.038C5.749,7.648,4.309,7.732,4.309,7.732z"/>
	<path fill="#FFF91A" d="M10.322,5.651H4.724c0,0-0.524,0.041-0.524,0.8s0.47,0.681,0.47,0.681l5.653,0.001
		c0,0,0.47-0.078,0.47-0.741C10.792,5.734,10.322,5.651,10.322,5.651z"/>
	<path fill="#FFF91A" d="M4.42,4.775c0,0-2.124-2.917-1.379-4.196c0.744-1.278,3.586,1.238,4.33,1.278
		c0.745,0.039,3.779-3.078,4.524-1.319c0.744,1.759-1.352,4.236-1.352,4.236H4.42z"/>
</g>
</svg>
