<?xml version="1.0" encoding="utf-8"?>
<!-- Generator: Adobe Illustrator 16.0.0, SVG Export Plug-In . SVG Version: 6.00 Build 0)  -->
<!DOCTYPE svg PUBLIC "-//W3C//DTD SVG 1.1//EN" "http://www.w3.org/Graphics/SVG/1.1/DTD/svg11.dtd">
<svg version="1.1" id="Layer_2" xmlns="http://www.w3.org/2000/svg" xmlns:xlink="http://www.w3.org/1999/xlink" x="0px" y="0px"
	 width="80px" height="80px" viewBox="0 0 80 80" enable-background="new 0 0 80 80" xml:space="preserve">
<g>
	<path fill="#FCE61A" d="M28.25,29.413c-8.75,7.667-13,19.917-13,24.417s-0.75,10.25,6.5,11.75s23.5,1.5,29.75,0s8.75-3,9.25-7.5
		s-4.833-22.244-13.583-28.744c0,0-6.058,0.176-9.16,0.077C32.594,29.24,28.25,29.413,28.25,29.413z"/>
	<path fill="#FCE61A" d="M46.417,25.08H29.5c0,0-1.583,0.083-1.583,1.667s1.417,1.417,1.417,1.417l17.083,0.005
		c0,0,1.417-0.166,1.417-1.544S46.417,25.08,46.417,25.08z"/>
	<path fill="#FCE61A" d="M28.583,23.249c0,0-6.417-6.083-4.167-8.75S35.25,17.082,37.5,17.166s11.417-6.416,13.667-2.75
		s-4.083,8.833-4.083,8.833H28.583z"/>
</g>
<g>
	<g>
		<path fill="#FFFFFF" d="M32.827,44.563l2.537,1.269l3.647-5.551c0,0-1.903-0.634-3.092,0
			C34.729,40.916,32.827,44.563,32.827,44.563z"/>
		<polygon fill="#FFFFFF" points="37.808,42.828 39.296,40.406 41.089,42.926 42.058,42.235 41.131,45.426 37.966,45.1 
			39.022,44.396 		"/>
	</g>
	<g>
		<path fill="#FFFFFF" d="M43.272,45.529l-2.448,1.433l2.658,6.086c0,0,1.57-1.248,1.688-2.591
			C45.288,49.115,43.272,45.529,43.272,45.529z"/>
		<polygon fill="#FFFFFF" points="42.006,50.65 43.223,53.219 40.133,53.346 40.182,54.533 38.015,52.016 40.017,49.541 
			40.028,50.811 		"/>
	</g>
	<g>
		<path fill="#FFFFFF" d="M37.056,54.051l-0.023-2.836l-6.601-0.727c0,0,0.3,1.983,1.405,2.754
			C32.943,54.014,37.056,54.051,37.056,54.051z"/>
		<polygon fill="#FFFFFF" points="33.246,50.402 30.413,50.178 31.842,47.436 30.787,46.887 34.049,46.262 35.198,49.229 
			34.091,48.607 		"/>
	</g>
</g>
</svg>
